<svg width="144" height="144" viewBox="0 0 144 144" fill="none" xmlns="http://www.w3.org/2000/svg">
  <rect width="144" height="144" rx="20" fill="#f97316"/>
  <path d="M72 20C46.8 20 26 40.8 26 66C26 91.2 46.8 112 72 112C97.2 112 118 91.2 118 66C118 40.8 97.2 20 72 20ZM72 104C51.2 104 34 86.8 34 66C34 45.2 51.2 28 72 28C92.8 28 110 45.2 110 66C110 86.8 92.8 104 72 104Z" fill="white"/>
  <path d="M72 48C60.96 48 52 56.96 52 68C52 79.04 60.96 88 72 88C83.04 88 92 79.04 92 68C92 56.96 83.04 48 72 48ZM72 80C65.36 80 60 74.64 60 68C60 61.36 65.36 56 72 56C78.64 56 84 61.36 84 68C84 74.64 78.64 80 72 80Z" fill="white"/>
  <circle cx="72" cy="68" r="8" fill="white"/>
</svg>